<svg xmlns="http://www.w3.org/2000/svg" width="35" height="35" viewBox="0 0 35 35">
  <g id="instagram_black" transform="translate(0)">
    <path id="Tracé_4" data-name="Tracé 4" d="M5.127,35H29.873A5.133,5.133,0,0,0,35,29.873V5.127A5.133,5.133,0,0,0,29.873,0H5.127A5.133,5.133,0,0,0,0,5.127V29.873A5.133,5.133,0,0,0,5.127,35ZM2.051,5.127A3.08,3.08,0,0,1,5.127,2.051H29.873a3.08,3.08,0,0,1,3.076,3.076V29.873a3.08,3.08,0,0,1-3.076,3.076H5.127a3.08,3.08,0,0,1-3.076-3.076Zm0,0" transform="translate(0 0)" fill="#f5f5f5"/>
    <path id="Tracé_5" data-name="Tracé 5" d="M8.815,17.63A8.815,8.815,0,1,0,0,8.815,8.825,8.825,0,0,0,8.815,17.63Zm0-15.671A6.856,6.856,0,1,1,1.959,8.815,6.864,6.864,0,0,1,8.815,1.959Zm0,0" transform="translate(8.685 8.685)" fill="#f5f5f5"/>
    <path id="Tracé_6" data-name="Tracé 6" d="M3.23,6.46A3.23,3.23,0,1,0,0,3.23,3.234,3.234,0,0,0,3.23,6.46Zm0-4.307A1.077,1.077,0,1,1,2.153,3.23,1.078,1.078,0,0,1,3.23,2.153Zm0,0" transform="translate(24.162 4.378)" fill="#f5f5f5"/>
  </g>
</svg>
